HIERARCHY
ROOT pelvis
{
  OFFSET 0 100 0
  CHANNELS 6 Xposition Yposition Zposition Zrotation Xrotation Yrotation
  JOINT pelvis_right_femur
  {
    OFFSET -10.78128 -3.44521 -0.5502486
    CHANNELS 3 Zrotation Xrotation Yrotation
    JOINT right_femur_tibia
    {
      OFFSET -0.8047443 -44.0398 -0.1307829
      CHANNELS 3 Zrotation Xrotation Yrotation
      JOINT right_tibia_foot
      {
        OFFSET 3.006224 -47.83518 -5
        CHANNELS 3 Zrotation Xrotation Yrotation
        End Site
        {
          OFFSET 0 -5 15
        }
      }
    }
  }
  JOINT pelvis_left_femur
  {
    OFFSET 10.78128 -3.44521 -0.5502486
    CHANNELS 3 Zrotation Xrotation Yrotation
    JOINT left_femur_tibia
    {
      OFFSET 0.8047443 -44.0398 -0.1307829
      CHANNELS 3 Zrotation Xrotation Yrotation
      JOINT left_tibia_foot
      {
        OFFSET -4.370144 -48.10324 -4.275266
        CHANNELS 3 Zrotation Xrotation Yrotation
        End Site
        {
          OFFSET 0 -5 15
        }
      }
    }
  }
  JOINT pelvis_spine1
  {
    OFFSET 0 6.468898 -3.129235
    CHANNELS 3 Zrotation Xrotation Yrotation
    JOINT spine1
    {
      OFFSET 0 23.15396 4.99043
      CHANNELS 3 Zrotation Xrotation Yrotation
      JOINT spine2
      {
        OFFSET 0 20.79997 -5.064912
        CHANNELS 3 Zrotation Xrotation Yrotation
        JOINT neck
        {
          OFFSET 0 14.38658 9.616178
          CHANNELS 3 Zrotation Xrotation Yrotation
          End Site
          {
            OFFSET 0 20 0
          }
        }
      }
      JOINT right_manubrium
      {
        OFFSET -5.722621 16.35077 3.967754
        CHANNELS 3 Zrotation Xrotation Yrotation
        JOINT right_clavicle
        {
          OFFSET -13.16364 1.694482 -4.693211
          CHANNELS 3 Zrotation Xrotation Yrotation
          JOINT right_humerus
          {
            OFFSET -28.5034 -0.3100689 -2.792744
            CHANNELS 3 Zrotation Xrotation Yrotation
            JOINT right_radius
            {
              OFFSET -25.15693 0.02248979 -1.271978
              CHANNELS 3 Zrotation Xrotation Yrotation
              End Site
              {
                OFFSET -15 0 0
              }
            }
          }
        }
      }
      JOINT left_manubrium
      {
        OFFSET 5.722621 16.35077 3.967754
        CHANNELS 3 Zrotation Xrotation Yrotation
        JOINT left_clavicle
        {
          OFFSET 13.16364 1.694482 -4.693211
          CHANNELS 3 Zrotation Xrotation Yrotation
          JOINT left_humerus
          {
            OFFSET 29.39168 -1.063119 -2.237045
            CHANNELS 3 Zrotation Xrotation Yrotation
            JOINT left_radius
            {
              OFFSET 24.59957 -0.9528479 0.9047498
              CHANNELS 3 Zrotation Xrotation Yrotation
              End Site
              {
                OFFSET 15 -0 -0
              }
            }
          }
        }
      }
    }
  }
}
MOTION
Frames: 11
Frame Time: 0.0416666666667
74.64515 98.66614 250.3814 5.702599 -7.226508 18.60618 -0.8028636 16.88387 6.721844 -0 25.33195 -0 5.085096 -11.03719 -1.710508 -3.251904 -17.22606 -6.67385 -0 28.01395 -0 -7.483763 -8.5277 17.97619 -1.916412 -1.012085 8.790422 -1.679348 10.17837 -3.054285 2.631866 22.15872 4.081438 1.561815 -14.38033 6.395405 1.208116 -20.19006 10.73646 83.58304 20.65533 -9.363473 -0 0 23.6963 -22.4655 10.57563 11.85202 4.606694 -14.76742 -3.528111 -92.21881 23.94331 22.23583 0 0 -11.82332 -3.719755 5.744073 17.43858
77.75228 98.73079 256.2051 5.883857 -7.250847 19.55366 -1.042144 15.03935 6.267666 -0 28.4439 -0 5.027787 -10.68298 -2.166726 -3.846847 -15.02058 -7.269608 -0 26.21143 -0 -7.222937 -9.316281 17.60798 -2.086985 -0.9639349 8.318836 -1.673669 9.898491 -3.223586 2.692698 22.33039 4.087109 1.408145 -14.29653 6.615115 1.11659 -19.77493 10.48565 84.05359 20.58101 -9.744269 -0 0 23.08904 -22.1958 10.49314 11.5912 4.557624 -14.71043 -3.608152 -91.56971 24.34875 21.29661 0 0 -11.77912 -3.645934 5.874333 17.38104
80.88432 98.86929 261.9235 6.062463 -7.282061 20.67942 -1.181735 12.37654 5.743333 -0 31.0284 -0 4.822466 -10.31313 -2.772822 -4.392652 -12.1538 -7.809528 -0 24.6252 -0 -6.966628 -10.21992 17.18729 -2.25088 -0.8573362 7.710252 -1.595173 9.641398 -3.501835 2.74245 22.54347 4.111555 1.25584 -14.1967 6.847998 1.052983 -19.21463 10.23288 84.67623 20.61189 -10.43474 -0 0 22.12423 -21.8148 10.45239 11.23263 4.548647 -14.84765 -3.722277 -90.64817 24.77341 19.8703 0 0 -12.11201 -3.450485 6.078888 17.15656
84.00389 99.05182 267.498 6.238258 -7.312139 21.96708 -1.238697 9.041062 5.179657 -0 32.96925 -0 4.472368 -9.963808 -3.498451 -4.861205 -8.77883 -8.270092 -0 23.28086 -0 -6.726266 -11.21312 16.73484 -2.402667 -0.6948506 6.996022 -1.451836 9.404617 -3.867689 2.78444 22.79158 4.14747 1.108122 -14.08335 7.08583 1.008082 -18.53498 9.982076 85.42191 20.72712 -11.38472 -0 0 20.85906 -21.33438 10.44462 10.78696 4.58038 -15.16201 -3.858853 -89.50099 25.19157 18.01992 0 0 -12.79088 -3.142079 6.353506 16.77282
87.08217 99.24721 272.9118 6.407868 -7.323583 23.38904 -1.235648 5.264117 4.613759 -0 34.15684 -0 3.987451 -9.662121 -4.299489 -5.235337 -5.092711 -8.640864 -0 22.22355 -0 -6.516972 -12.24959 16.27116 -2.537847 -0.4925258 6.222318 -1.255439 9.180302 -4.291115 2.825195 23.06035 4.183169 0.970246 -13.96741 7.316935 0.9701181 -17.76783 9.736601 86.24893 20.89985 -12.52421 -0 0 19.36753 -20.77082 10.45761 10.26741 4.650456 -15.6196 -4.000383 -88.20044 25.57636 15.85177 0 0 -13.75247 -2.735638 6.690758 16.24764
90.10366 99.42598 278.1762 6.563433 -7.294502 24.90552 -1.19149 1.326407 4.082789 -0 34.4886 -0 3.380955 -9.429188 -5.124688 -5.505334 -1.315262 -8.92045 -0 21.51165 -0 -6.355196 -13.27016 15.81579 -2.653224 -0.2747673 5.443472 -1.019824 8.957634 -4.737274 2.873254 23.33075 4.204368 0.8487605 -13.86489 7.527659 0.9259506 -16.94794 9.499565 87.10674 21.1024 -13.77166 -0 0 17.73213 -20.14281 10.47741 9.688626 4.754967 -16.17644 -4.126021 -86.83388 25.90686 13.49961 0 0 -14.91437 -2.249787 7.081655 15.60495
93.06721 99.56215 283.3276 6.694034 -7.208328 26.46749 -1.11604 -2.506736 3.61661 -0 33.90678 -0 2.668109 -9.278799 -5.927192 -5.668779 2.352192 -9.114374 -0 21.1954 -0 -6.253327 -14.21753 15.38562 -2.747288 -0.06586983 4.709088 -0.7586326 8.727274 -5.173865 2.936279 23.58503 4.198384 0.7494548 -13.79101 7.705944 0.8646171 -16.10826 9.274088 87.94643 21.31232 -15.04884 -0 0 16.03098 -19.46957 10.49144 9.066114 4.888948 -16.78814 -4.217283 -85.48526 26.17308 11.09721 0 0 -16.19156 -1.704108 7.516286 14.87111
95.98356 99.63482 288.4175 6.789385 -7.062132 28.02245 -1.009599 -6.028709 3.234856 -0 32.4377 -0 1.866392 -9.216164 -6.672189 -5.730269 5.75157 -9.232922 -0 21.30426 -0 -6.215523 -15.04517 14.99627 -2.819673 0.1170471 4.054743 -0.4839165 8.485431 -5.576029 3.018441 23.81182 4.157604 0.6756357 -13.75558 7.844039 0.7806095 -15.27804 9.063915 88.72885 21.51539 -16.28968 -0 0 14.3305 -18.77036 10.49078 8.417142 5.045574 -17.41555 -4.262688 -84.22367 26.3761 8.760406 0 0 -17.50443 -1.118241 7.983771 14.07381
98.87103 99.63103 293.4994 6.844283 -6.870382 29.52019 -0.8645222 -9.082464 2.949864 -0 30.21393 -0 0.9969405 -9.239329 -7.335514 -5.69963 8.754171 -9.288615 -0 21.85653 -0 -6.236643 -15.71259 14.66849 -2.869693 0.2666385 3.50211 -0.2066404 8.236243 -5.925209 3.119355 24.00852 4.080278 0.6277624 -13.76174 7.93856 0.6753344 -14.48621 8.874722 89.42367 21.70502 -17.43475 -0 0 12.69009 -18.06634 10.47013 7.763591 5.213976 -18.02233 -4.258807 -83.10817 26.5255 6.593838 0 0 -18.76967 -0.5143993 8.471737 13.24532
101.7509 99.55009 298.6159 6.862657 -6.665501 30.91714 -0.6661902 -11.52386 2.771457 -0 27.48491 -0 0.08634874 -9.341828 -7.897515 -5.589972 11.22785 -9.294127 -0 22.87965 -0 -6.302746 -16.17384 14.43612 -2.894761 0.3850194 3.064154 0.06185887 7.99298 -6.204909 3.234062 24.18169 3.969714 0.6039029 -13.80675 7.989099 0.557331 -13.76727 8.71556 90.00312 21.88031 -18.41847 -0 0 11.17272 -17.38371 10.42686 7.135615 5.376586 -18.5682 -4.209312 -82.20082 26.63761 4.710619 0 0 -19.88328 0.07840548 8.965809 12.4278
104.6429 99.40839 303.79 6.858809 -6.493227 32.17863 -0.3955763 -13.20367 2.708433 -0 24.59561 -0 -0.833783 -9.515011 -8.339358 -5.416063 13.02412 -9.260582 -0 24.41655 -0 -6.393319 -16.37399 14.34682 -2.890078 0.4816368 2.749101 0.3094611 7.776592 -6.398594 3.354035 24.34537 3.832849 0.6004499 -13.88362 7.996995 0.4406726 -13.16251 8.598519 90.43854 22.0443 -19.16515 -0 0 9.848417 -16.75379 10.36041 6.57135 5.50929 -19.00715 -4.123274 -81.57079 26.73382 3.238501 0 0 -20.71787 0.6236821 9.450485 11.67366
